<?xml version="1.0" encoding="UTF-8" standalone="no"?>
<!-- Generator: Adobe Illustrator 16.0.0, SVG Export Plug-In . SVG Version: 6.00 Build 0)  -->

<svg
   xmlns:dc="http://purl.org/dc/elements/1.1/"
   xmlns:cc="http://creativecommons.org/ns#"
   xmlns:rdf="http://www.w3.org/1999/02/22-rdf-syntax-ns#"
   xmlns:svg="http://www.w3.org/2000/svg"
   xmlns="http://www.w3.org/2000/svg"
   xmlns:sodipodi="http://sodipodi.sourceforge.net/DTD/sodipodi-0.dtd"
   xmlns:inkscape="http://www.inkscape.org/namespaces/inkscape"
   version="1.1"
   id="Capa_1"
   x="0px"
   y="0px"
   width="94.006px"
   height="94.005px"
   viewBox="0 0 94.006 94.005"
   style="enable-background:new 0 0 94.006 94.005;"
   xml:space="preserve"
   sodipodi:docname="logo coracao.svg"
   inkscape:version="0.92.4 (5da689c313, 2019-01-14)"
   inkscape:export-filename="C:\Users\frainer\Desktop\Icare\logo coracao.png"
   inkscape:export-xdpi="96"
   inkscape:export-ydpi="96"><metadata
   id="metadata100"><rdf:RDF><cc:Work
       rdf:about=""><dc:format>image/svg+xml</dc:format><dc:type
         rdf:resource="http://purl.org/dc/dcmitype/StillImage" /><dc:title /></cc:Work></rdf:RDF></metadata><defs
   id="defs98">
	
</defs><sodipodi:namedview
   pagecolor="#ffffff"
   bordercolor="#666666"
   borderopacity="1"
   objecttolerance="10"
   gridtolerance="10"
   guidetolerance="10"
   inkscape:pageopacity="0"
   inkscape:pageshadow="2"
   inkscape:window-width="1920"
   inkscape:window-height="1017"
   id="namedview96"
   showgrid="false"
   inkscape:zoom="2.5105048"
   inkscape:cx="-52.128715"
   inkscape:cy="61.052896"
   inkscape:window-x="1072"
   inkscape:window-y="487"
   inkscape:window-maximized="1"
   inkscape:current-layer="Capa_1" />

<g
   id="g65">
</g>
<g
   id="g67">
</g>
<g
   id="g69">
</g>
<g
   id="g71">
</g>
<g
   id="g73">
</g>
<g
   id="g75">
</g>
<g
   id="g77">
</g>
<g
   id="g79">
</g>
<g
   id="g81">
</g>
<g
   id="g83">
</g>
<g
   id="g85">
</g>
<g
   id="g87">
</g>
<g
   id="g89">
</g>
<g
   id="g91">
</g>
<g
   id="g93">
</g>


<path
   inkscape:connector-curvature="0"
   id="path61-6"
   d="m 38.891536,31.258101 c 0,1.184672 -0.176171,2.353391 -0.51809,3.476903 -1.606154,8.007298 -15.494779,17.693882 -16.085672,18.106059 -0.184632,0.126321 -0.391783,0.192336 -0.602961,0.192336 -0.210766,0 -0.420746,-0.05851 -0.605376,-0.192336 -0.158873,-0.113909 -4.071897,-2.834711 -8.039213,-6.574433 -0.475049,-0.451177 -0.524927,-1.229437 -0.126304,-1.750641 0.408275,-0.51677 1.113808,-0.579706 1.589661,-0.140489 2.957285,2.783739 5.945946,5.03431 7.186865,5.941096 4.171253,-2.996476 13.379785,-10.619961 14.508479,-16.242399 0.294844,-0.993212 0.427986,-1.896453 0.427986,-2.813434 0,-3.191928 -1.577196,-6.134333 -4.116952,-7.675783 -3.24328,-1.982879 -7.584682,-1.068556 -9.957508,2.08304 -0.426376,0.569067 -1.303266,0.569067 -1.737688,0 -2.380069,-3.153814 -6.718251,-4.061045 -9.957109,-2.086588 -2.5478025,1.544995 -4.1249943,4.485629 -4.1249943,7.674453 0,0.910777 0.1399822,1.818007 0.4006343,2.694216 0.1298769,0.636383 0.351832,1.261818 0.6352112,1.898896 0.081728,0.183744 -2.3856968,0.206925 -2.2578563,0.554163 l 9.0967101,4.97e-4 2.259396,-5.721273 c 0.193477,-0.489737 0.655655,-0.797761 1.131106,-0.742803 0.484298,0.04652 0.88815,0.430344 0.995952,0.951549 l 1.663272,7.748025 2.151593,-3.887308 c 0.20275,-0.369185 0.567565,-0.594775 0.961763,-0.594775 h 4.08316 c 0.621464,0 1.126681,0.554442 1.126681,1.24229 0,0.684303 -0.505217,1.241847 -1.126681,1.241847 h -3.450434 l -3.241268,5.866197 c -0.206751,0.37406 -0.571185,0.597435 -0.958543,0.597435 -0.06154,0 -0.121084,-0.0053 -0.176183,-0.01465 -0.454131,-0.08023 -0.811726,-0.448961 -0.920732,-0.938699 l -1.520075,-7.057541 -1.201097,3.046115 c -0.179398,0.457826 -0.586066,0.746792 -1.034566,0.746792 H 2.2054225 c -0.6170402,-4.42e-4 -1.1270839,-0.556216 -1.1270839,-1.241845 0,-0.684302 0.5100437,-1.241847 1.1270839,-1.241847 H 5.5106489 C 5.4663688,36.286763 5.4236949,36.171013 5.3828084,36.055918 5.2071606,35.561463 5.0645061,35.079107 4.9692291,34.609579 4.6546767,33.604402 4.4845275,32.43391 4.4845275,31.25544 c 0,-4.096056 2.0216694,-7.867246 5.2882807,-9.850122 3.7834918,-2.305971 8.7902028,-1.580894 11.9168318,1.656238 3.118184,-3.237576 8.121274,-3.962209 11.9112,-1.656238 3.262589,1.980218 5.290696,5.754066 5.290696,9.852783 z"
   style="fill:#ffffff;stroke-width:0.42222491"
   sodipodi:nodetypes="sccsccccccsccccscscccccccssssccsccccscsscscscccs" /><path
   inkscape:connector-curvature="0"
   id="path3771"
   style="font-style:normal;font-variant:normal;font-weight:normal;font-stretch:normal;font-size:14.76816082px;line-height:1.25;font-family:'Segoe Script';-inkscape-font-specification:'Segoe Script';letter-spacing:0px;word-spacing:0px;fill:#ffffff;fill-opacity:1;stroke:none;stroke-width:0.81980246"
   d="m 44.894343,24.930268 q 0.0131,0.507124 -0.512626,2.457608 -0.262884,0.975244 -0.407472,1.618901 -0.144574,0.624156 -0.170864,0.916728 -0.262885,2.321074 -0.512624,4.993237 -0.236597,2.672161 -0.460051,5.773429 -0.07887,0.838707 -0.131451,1.462863 -0.05256,0.604649 -0.09202,0.994748 -0.02629,0.390095 -0.0657,0.858209 -0.03944,0.448613 -0.06572,0.994748 -0.02629,0.546136 -0.03944,0.994746 0,0.448611 0.0131,0.83871 0,0.234051 0.170865,0.702171 0.157719,0.429108 0.170864,0.741185 0.02629,0.702176 -0.644068,1.365338 -0.328606,0.331581 -0.617781,0.487619 -0.27603,0.17555 -0.525772,0.214541 -0.381181,0 -0.604635,-0.273069 -0.249742,-0.390095 -0.420615,-0.97524 -0.170864,-0.585146 -0.184032,-0.994745 -0.03944,-1.228804 -0.02629,-2.457611 0.02629,-1.228804 0.131451,-2.496618 0.105161,-1.248308 0.249739,-2.828203 0.157719,-1.57989 0.381184,-3.510865 0.170865,-1.326332 0.315463,-2.496623 0.157719,-1.189795 0.302318,-2.243052 0.144574,-1.072768 0.328608,-2.399094 0.18401,-1.345834 0.407469,-3.003747 0.06573,-0.585144 0.118307,-0.994747 0.05258,-0.409599 0.09202,-0.643659 0.02629,-0.273065 0.07887,-0.721678 0.06572,-0.44861 0.157719,-1.131281 0.0131,-0.234052 0.09202,-0.526629 0.09201,-0.312076 0.2103,-0.585146 0.131451,-0.273068 0.276029,-0.468115 0.15772,-0.214541 0.302317,-0.214541 0.262885,-0.01954 0.578348,0.195046 0.328608,0.195044 0.525772,0.526628 0.262884,0.390099 0.394327,0.838709 0.131451,0.429106 0.157719,0.916728 0.0131,0.312077 0.0131,0.546133 0,0.234052 0.0131,0.526633 z" /><path
   inkscape:connector-curvature="0"
   id="path3773"
   style="font-style:normal;font-variant:normal;font-weight:normal;font-stretch:normal;font-size:14.76816082px;line-height:1.25;font-family:'Segoe Script';-inkscape-font-specification:'Segoe Script';letter-spacing:0px;word-spacing:0px;fill:#ffffff;fill-opacity:1;stroke:none;stroke-width:0.81980246"
   d="m 64.297119,37.549893 c 0,0.8062 -0.37242,1.800946 -1.117262,2.98424 -0.184032,0.299073 -0.411855,0.630654 -0.683504,0.994745 -0.262885,0.364091 -0.543295,0.734684 -0.841232,1.111776 -0.297934,0.364091 -0.600252,0.728182 -0.906953,1.09227 -0.297937,0.364091 -0.578347,0.695674 -0.841234,0.994748 -0.841232,0.962238 -1.721898,1.872462 -2.641996,2.730676 -0.920098,0.858212 -1.848961,1.6124 -2.786582,2.262561 -0.937625,0.650162 -1.875249,1.163787 -2.812874,1.540881 -0.92886,0.377094 -1.827051,0.56564 -2.694574,0.56564 -0.946388,0 -1.770094,-0.201551 -2.471122,-0.604651 -0.701028,-0.403098 -1.283756,-0.975239 -1.748187,-1.716424 -0.455667,-0.741183 -0.797418,-1.631904 -1.025251,-2.67216 -0.227834,-1.053263 -0.341753,-2.223553 -0.341753,-3.51087 -0.0086,-1.170291 0.07012,-2.360086 0.236597,-3.569386 0.175261,-1.2093 0.416236,-2.399095 0.722935,-3.569384 0.306701,-1.17029 0.674739,-2.295068 1.104119,-3.374336 0.429379,-1.09227 0.898191,-2.100019 1.406434,-3.023248 0.306701,-0.559141 0.652833,-1.12478 1.0384,-1.696921 0.385563,-0.585145 0.788654,-1.150785 1.209271,-1.696919 0.429379,-0.546138 0.863139,-1.053262 1.301282,-1.521377 0.438141,-0.48112 0.86752,-0.903724 1.288137,-1.267815 0.271649,-0.234059 0.617781,-0.507127 1.038398,-0.819203 0.420615,-0.312078 0.863139,-0.604649 1.32757,-0.877719 0.464429,-0.273066 0.924479,-0.500622 1.380149,-0.682667 0.455667,-0.195045 0.849996,-0.292574 1.182983,-0.292574 0.534533,0 0.959531,0.05851 1.274994,0.175549 0.324224,0.104029 0.609016,0.286082 0.854377,0.546136 0.11391,0.13003 0.245352,0.331581 0.394327,0.604651 0.157742,0.260062 0.302318,0.552634 0.43376,0.877714 0.1402,0.312079 0.254116,0.630657 0.341751,0.955739 0.09639,0.312076 0.144574,0.578642 0.144574,0.799698 0,0.221047 -0.0701,0.552636 -0.210299,0.994745 -0.1402,0.44211 -0.302312,0.903725 -0.486337,1.384846 -0.184031,0.468114 -0.368041,0.910224 -0.552059,1.326326 -0.184032,0.4031 -0.324225,0.68267 -0.420618,0.838708 -0.359276,0.585144 -0.744841,0.877716 -1.156694,0.877716 -0.350515,0 -0.626545,-0.156032 -0.828089,-0.468115 -0.192781,-0.325082 -0.289173,-0.728182 -0.289173,-1.209299 0,-0.169044 0.06572,-0.429102 0.197155,-0.780195 0.131429,-0.364088 0.350508,-0.773689 0.657213,-1.228804 0.306699,-0.455112 0.543296,-0.871214 0.70979,-1.248309 0.175261,-0.390096 0.284792,-0.650161 0.328606,-0.780194 -0.175261,-0.182033 -0.389946,-0.325079 -0.644069,-0.429105 -0.254122,-0.104029 -0.490719,-0.156032 -0.709789,-0.156032 -0.315464,0 -0.705409,0.110534 -1.169841,0.331581 -0.464431,0.208057 -0.942005,0.48112 -1.432724,0.819203 -0.481958,0.338083 -0.955151,0.715177 -1.419582,1.131282 -0.455667,0.403097 -0.841232,0.793194 -1.156694,1.170288 -0.902573,1.105274 -1.735043,2.295069 -2.497408,3.569386 -0.762368,1.274315 -1.393294,2.685163 -1.892776,4.232546 -0.201551,0.637158 -0.394327,1.306826 -0.578347,2.009 -0.175261,0.689171 -0.328605,1.391344 -0.46005,2.106521 -0.131429,0.715178 -0.23659,1.430355 -0.315461,2.145529 -0.0701,0.702174 -0.105161,1.378344 -0.105161,2.028505 0,0.767189 0.05696,1.482367 0.170865,2.145532 0.122679,0.663164 0.319836,1.235306 0.591492,1.716424 0.271649,0.48112 0.626543,0.858214 1.064686,1.131279 0.446905,0.273068 0.994581,0.409602 1.643033,0.409602 0.701028,0 1.419579,-0.143042 2.155659,-0.429107 0.736078,-0.286068 1.467775,-0.669663 2.195091,-1.150783 0.736079,-0.494121 1.463395,-1.05326 2.181949,-1.677415 0.718552,-0.637158 1.406437,-1.300323 2.063651,-1.989494 0.665975,-0.68917 1.296899,-1.378342 1.892772,-2.067513 0.595873,-0.689169 1.139169,-1.33933 1.629888,-1.950482 0.201551,-0.24706 0.411853,-0.520128 0.630926,-0.819203 0.227835,-0.299074 0.451286,-0.598148 0.670356,-0.897224 0.219071,-0.299074 -0.201551,0.299074 0,0 0.210323,-0.299075 0.223705,0.575968 0.381437,0.328908 0.394328,0.299074 0.702052,1.004574 0.702052,1.563712 z"
   sodipodi:nodetypes="ccccccsccscccccscccccccccscccccsscccscscccccscccccccccscccscccccccccccc" /><path
   inkscape:connector-curvature="0"
   id="path3775"
   style="font-style:normal;font-variant:normal;font-weight:normal;font-stretch:normal;font-size:14.76816082px;line-height:1.25;font-family:'Segoe Script';-inkscape-font-specification:'Segoe Script';letter-spacing:0px;word-spacing:0px;fill:#ffffff;fill-opacity:1;stroke:none;stroke-width:0.81980246"
   d="m 72.880404,36.756886 q 0.0064,-0.03846 -0.0031,-0.218139 -0.0095,-0.179679 -0.05793,-0.365926 -0.04514,-0.205482 -0.138934,-0.359879 -0.07758,-0.171442 -0.207169,-0.193424 l -0.02591,-0.0044 q -0.492534,-0.0044 -1.105315,0.307118 -0.609517,0.292293 -1.358844,1.015889 -0.746065,0.704366 -1.638466,1.878497 -0.892398,1.174132 -1.931222,2.897151 -0.314888,0.520309 -0.701185,1.147211 -0.370078,0.609867 -0.753284,1.375775 -0.366987,0.748879 -0.688746,1.624123 -0.308791,0.877448 -0.47839,1.877418 -0.101119,0.596136 0.131807,0.952173 0.245878,0.358236 0.556898,0.410987 0.32398,0.05495 0.93041,-0.37635 0.609689,-0.450531 1.352581,-1.214786 0.759111,-0.781282 1.57032,-1.791136 0.82743,-1.026882 1.560969,-2.129041 0.746505,-1.099959 1.33097,-2.187835 0.597426,-1.085676 0.899793,-2.003781 0.0878,-0.281858 0.204881,-0.657668 0.120327,-0.395044 0.224442,-0.773053 0.120305,-0.395047 0.201706,-0.717562 0.09759,-0.33955 0.12368,-0.49339 z m 9.759017,3.930252 q -0.11089,0.653827 -0.497277,1.359847 -0.370161,0.688984 -0.785551,1.251604 -1.093656,1.496097 -2.219409,2.709784 -1.10953,1.196658 -2.222151,2.254307 -1.161282,1.108745 -2.22798,1.659811 -1.053736,0.553268 -1.80537,0.425786 -0.323981,-0.05495 -0.608824,-0.340651 -0.271881,-0.283508 -0.495016,-0.697242 -0.206902,-0.43076 -0.342419,-0.968114 -0.122547,-0.535148 -0.14786,-1.093374 -0.01599,-0.299446 -0.0058,-0.673614 0.01332,-0.393394 0.01377,-0.709871 0.0036,-0.335707 -0.02532,-0.558228 -0.02567,-0.241746 -0.103406,-0.254931 -0.05184,-0.0089 -0.262703,0.212609 -0.210855,0.221424 -0.512626,0.58569 -0.28554,0.34724 -0.629522,0.803265 -0.340723,0.436797 -0.678182,0.854364 -0.3245,0.419764 -0.597077,0.769202 -0.259609,0.351639 -0.408869,0.524155 -0.515888,0.604922 -1.193807,1.22193 -0.661702,0.599975 -1.316792,1.082367 -0.642131,0.484595 -1.170634,0.770844 -0.515538,0.288448 -0.735846,0.251082 -0.492449,-0.08351 -0.919843,-0.393403 -0.411173,-0.326911 -0.682795,-0.847786 -0.271621,-0.520873 -0.377777,-1.231292 -0.09319,-0.708224 0.05358,-1.573581 0.241353,-1.423039 0.927017,-3.186168 0.698618,-1.760933 1.640289,-3.53999 0.95463,-1.776864 2.064596,-3.369111 1.113225,-1.611482 2.20645,-2.711986 1.268391,-1.268629 2.497033,-1.752667 1.244865,-0.501066 2.424153,-0.301054 0.220314,0.03737 0.352986,0.198354 0.145618,0.163181 0.226394,0.394498 0.08076,0.231303 0.125789,0.515923 0.04832,0.26537 0.09337,0.549985 0.02247,0.181856 0.155077,0.42197 0.132583,0.240092 0.274884,0.501639 0.145551,0.242291 0.239268,0.475816 0.106671,0.235695 0.07405,0.428007 -0.0685,0.403837 -0.269932,0.884038 -0.185208,0.463175 -0.425695,1.095022 -0.237232,0.612615 -0.494101,1.419735 -0.240665,0.790084 -0.420049,1.847746 -0.117418,0.692288 -0.189694,1.590064 -0.05931,0.899976 -0.02782,1.736219 0.04771,0.81921 0.228527,1.403812 0.180812,0.5846 0.54368,0.646142 0.440612,0.07474 0.943193,-0.215917 0.505841,-0.309876 1.190202,-0.886223 1.524399,-1.28456 2.96813,-2.879553 1.443729,-1.594992 2.936035,-3.161963 0.259523,-0.272517 0.440959,-0.241744 0.298063,0.05056 0.180656,0.742841 z" /><path
   inkscape:connector-curvature="0"
   id="path3777"
   style="font-style:normal;font-variant:normal;font-weight:normal;font-stretch:normal;font-size:14.76816082px;line-height:1.25;font-family:'Segoe Script';-inkscape-font-specification:'Segoe Script';letter-spacing:0px;word-spacing:0px;fill:#ffffff;fill-opacity:1;stroke:none;stroke-width:0.81980246"
   d="m 94.28618,35.014265 q 0,0.292572 -0.184011,0.507124 -0.170865,0.195045 -0.460045,0.370594 -0.289179,0.17555 -0.657219,0.331581 -0.354893,0.136536 -0.709786,0.312077 -0.854376,0.390099 -1.761337,1.131282 -0.893805,0.721678 -1.866479,2.184541 -0.762371,1.150783 -1.31443,2.4186 -0.538916,1.248308 -0.933242,2.652656 -0.39433,1.404346 -0.670357,2.98424 -0.27603,1.560386 -0.473195,3.335324 -0.144575,0.234054 -0.249739,0.409603 -0.105161,0.17555 -0.223452,0.292572 -0.118307,0.117041 -0.276032,0.17555 -0.144574,0.07801 -0.381182,0.07801 -0.34175,0 -0.538916,-0.448611 -0.18401,-0.429108 -0.276028,-1.033757 -0.09202,-0.585144 -0.118306,-1.189793 -0.0131,-0.604651 -0.0131,-0.955739 0,-0.37059 0.0131,-0.936232 0.0131,-0.585144 0.02629,-1.267813 0.02629,-0.682667 0.05256,-1.404348 0.02629,-0.741182 0.03944,-1.423854 0.02629,-0.682669 0.03944,-1.248308 0.0131,-0.585145 0.0131,-0.955737 0,-0.897223 -0.02629,-1.482368 -0.0131,-0.585141 -0.03944,-0.994745 -0.02629,-0.409601 -0.0657,-0.721678 -0.03944,-0.331583 -0.06572,-0.702176 -0.02629,-0.390095 -0.05256,-0.897223 -0.0131,-0.526628 -0.0131,-1.345831 0,-0.409602 0.118306,-0.780192 0.118306,-0.390099 0.302317,-0.663167 0.197155,-0.292572 0.433761,-0.44861 0.249741,-0.175549 0.486337,-0.175549 0.276031,0 0.512627,0.175549 0.236596,0.175549 0.407474,0.44861 0.170865,0.273068 0.262885,0.643663 0.09202,0.351085 0.09202,0.721675 0,0.741185 -0.06573,1.774942 -0.0657,1.014248 -0.144573,2.087014 -0.0657,1.053261 -0.118306,2.048009 -0.05259,0.975241 -0.03944,1.638406 0.565202,-1.599397 1.301281,-3.2378 0.749222,-1.638408 1.656182,-2.964737 0.920098,-1.345834 1.984778,-2.184541 1.064688,-0.858212 2.273957,-0.858212 0.236604,0 0.538921,0.07801 0.302317,0.078 0.565205,0.273065 0.262879,0.195046 0.433752,0.507126 0.184011,0.292575 0.184011,0.741186 z" /><path
   inkscape:connector-curvature="0"
   id="path3779"
   style="font-style:normal;font-variant:normal;font-weight:normal;font-stretch:normal;font-size:14.76816082px;line-height:1.25;font-family:'Segoe Script';-inkscape-font-specification:'Segoe Script';letter-spacing:0px;word-spacing:0px;fill:#ffffff;fill-opacity:1;stroke:none;stroke-width:0.81980246"
   d="m 100.83559,36.832217 q 0.092,-0.193802 0.096,-0.386229 0.004,-0.192403 -0.0526,-0.348852 -0.0448,-0.150836 -0.13844,-0.260051 -0.0734,-0.121193 -0.15653,-0.16065 -0.52246,-0.24802 -1.336335,0.05653 -0.80552,0.286936 -1.748896,1.0482 -0.943385,0.761265 -1.943675,1.948922 -1.000291,1.187659 -1.883712,2.711478 0.241518,-0.07967 0.656827,-0.249567 0.415301,-0.169909 0.891323,-0.375745 0.49626,-0.217827 0.980645,-0.441301 0.49626,-0.217827 0.896176,-0.416627 0.872427,-0.427898 1.479596,-0.787403 0.615525,-0.377126 1.026496,-0.721807 0.431215,-0.356664 0.715085,-0.740095 0.29224,-0.401046 0.51807,-0.876793 z m 1.93804,10.139329 q -0.29276,0.61671 -0.94443,1.192588 -0.65168,0.575872 -1.64823,1.20394 -1.138219,0.711955 -2.340144,1.22094 -1.193562,0.491365 -2.334243,0.748741 -1.132327,0.239756 -2.162925,0.203927 -1.030599,-0.03581 -1.826179,-0.413488 -1.864258,-0.884975 -2.040637,-3.14939 -0.176371,-2.264413 1.454698,-5.700368 0.518597,-1.092456 1.184545,-2.158145 0.674294,-1.083318 1.45063,-2.075017 0.788192,-0.986071 1.661674,-1.845288 0.885355,-0.853583 1.822537,-1.509837 0.579901,-0.394034 1.239412,-0.771869 0.65951,-0.377833 1.343596,-0.59287 0.692446,-0.232657 1.384366,-0.249651 0.7038,-0.01132 1.36876,0.304301 0.47497,0.225472 0.72111,0.687774 0.25452,0.44468 0.315,0.991577 0.0605,0.546897 -0.0598,1.13751 -0.10844,0.596244 -0.35102,1.107232 -0.51024,1.074838 -1.42905,1.998902 -0.91044,0.906445 -2.158225,1.695933 -1.239421,0.771871 -2.772177,1.426077 -1.524401,0.636588 -3.274413,1.166073 -0.233154,0.06206 -0.483044,0.159341 -0.241535,0.07967 -0.35863,0.326343 -0.250935,0.528609 -0.431958,1.155176 -0.18104,0.626567 -0.165873,1.238304 0.02352,0.594121 0.288562,1.108572 0.276913,0.520089 0.929994,0.830112 0.831203,0.394576 1.870165,0.412782 1.059208,0.0062 2.213105,-0.309655 1.16578,-0.310238 2.397656,-0.912961 1.243738,-0.597088 2.455908,-1.403488 0.67273,-0.436329 0.89834,-0.329232 0.13061,0.06199 0.0813,0.319242 -0.0494,0.257232 -0.30031,0.785845 z" />

</svg>